<mxfile host="Electron" modified="2023-09-13T11:48:05.370Z" agent="Mozilla/5.0 (Windows NT 10.0; Win64; x64) AppleWebKit/537.36 (KHTML, like Gecko) draw.io/21.6.8 Chrome/114.0.5735.289 Electron/25.5.0 Safari/537.36" etag="1azOxLQBjuz5muzB_54I" version="21.6.8" type="device">
  <diagram id="C5RBs43oDa-KdzZeNtuy" name="Page-1">
    <mxGraphModel dx="1665" dy="614" grid="1" gridSize="10" guides="1" tooltips="1" connect="1" arrows="1" fold="1" page="1" pageScale="1" pageWidth="827" pageHeight="1169" math="0" shadow="0">
      <root>
        <mxCell id="WIyWlLk6GJQsqaUBKTNV-0" />
        <mxCell id="WIyWlLk6GJQsqaUBKTNV-1" parent="WIyWlLk6GJQsqaUBKTNV-0" />
        <mxCell id="zkfFHV4jXpPFQw0GAbJ--12" value="" style="endArrow=block;endSize=10;endFill=0;shadow=0;strokeWidth=1;rounded=0;edgeStyle=elbowEdgeStyle;elbow=vertical;labelBackgroundColor=none;strokeColor=#788AA3;fontColor=default;" parent="WIyWlLk6GJQsqaUBKTNV-1" edge="1">
          <mxGeometry width="160" relative="1" as="geometry">
            <mxPoint x="730" y="702" as="sourcePoint" />
            <mxPoint x="830" y="600" as="targetPoint" />
          </mxGeometry>
        </mxCell>
        <mxCell id="zkfFHV4jXpPFQw0GAbJ--16" value="" style="endArrow=block;endSize=10;endFill=0;shadow=0;strokeWidth=1;rounded=0;edgeStyle=elbowEdgeStyle;elbow=vertical;labelBackgroundColor=none;strokeColor=#788AA3;fontColor=default;" parent="WIyWlLk6GJQsqaUBKTNV-1" edge="1">
          <mxGeometry width="160" relative="1" as="geometry">
            <mxPoint x="940" y="702" as="sourcePoint" />
            <mxPoint x="830" y="600" as="targetPoint" />
          </mxGeometry>
        </mxCell>
        <mxCell id="oACd-mInpP_rTTgsKtDE-4" value="&lt;b style=&quot;border-color: var(--border-color);&quot;&gt;Node&amp;lt;K, T&amp;gt;&lt;/b&gt;" style="swimlane;fontStyle=1;align=center;verticalAlign=top;childLayout=stackLayout;horizontal=1;startSize=26;horizontalStack=0;resizeParent=1;resizeParentMax=0;resizeLast=0;collapsible=1;marginBottom=0;whiteSpace=wrap;html=1;strokeColor=#788AA3;fontColor=#46495D;fillColor=#B2C9AB;" parent="WIyWlLk6GJQsqaUBKTNV-1" vertex="1">
          <mxGeometry x="740" y="430" width="180" height="170" as="geometry" />
        </mxCell>
        <mxCell id="oACd-mInpP_rTTgsKtDE-5" value="&lt;p style=&quot;border-color: var(--border-color); margin: 0px 0px 0px 4px;&quot;&gt;+ degree: int&lt;/p&gt;&lt;p style=&quot;border-color: var(--border-color); margin: 0px 0px 0px 4px;&quot;&gt;+ parent: Node&amp;lt;K,T&amp;gt;*&lt;/p&gt;&lt;p style=&quot;border-color: var(--border-color); margin: 0px 0px 0px 4px;&quot;&gt;+ keys: vector&amp;lt;K&amp;gt;&lt;/p&gt;" style="text;strokeColor=none;fillColor=none;align=left;verticalAlign=top;spacingLeft=4;spacingRight=4;overflow=hidden;rotatable=0;points=[[0,0.5],[1,0.5]];portConstraint=eastwest;whiteSpace=wrap;html=1;fontColor=#46495D;" parent="oACd-mInpP_rTTgsKtDE-4" vertex="1">
          <mxGeometry y="26" width="180" height="54" as="geometry" />
        </mxCell>
        <mxCell id="oACd-mInpP_rTTgsKtDE-6" value="" style="line;strokeWidth=1;fillColor=none;align=left;verticalAlign=middle;spacingTop=-1;spacingLeft=3;spacingRight=3;rotatable=0;labelPosition=right;points=[];portConstraint=eastwest;strokeColor=inherit;fontColor=#46495D;" parent="oACd-mInpP_rTTgsKtDE-4" vertex="1">
          <mxGeometry y="80" width="180" height="8" as="geometry" />
        </mxCell>
        <mxCell id="oACd-mInpP_rTTgsKtDE-7" value="&lt;p style=&quot;border-color: var(--border-color); margin: 0px 0px 0px 4px;&quot;&gt;+ Node()&lt;/p&gt;&lt;p style=&quot;border-color: var(--border-color); margin: 0px 0px 0px 4px;&quot;&gt;+ virtual ~Node()&lt;/p&gt;&lt;p style=&quot;border-color: var(--border-color); margin: 0px 0px 0px 4px;&quot;&gt;+ find_last_pos(K): int&lt;/p&gt;&lt;p style=&quot;border-color: var(--border-color); margin: 0px 0px 0px 4px;&quot;&gt;+ key_index(K): int&lt;/p&gt;&lt;p style=&quot;border-color: var(--border-color); margin: 0px 0px 0px 4px;&quot;&gt;+ find_first_big_pos(K): int&lt;/p&gt;" style="text;strokeColor=none;fillColor=none;align=left;verticalAlign=top;spacingLeft=4;spacingRight=4;overflow=hidden;rotatable=0;points=[[0,0.5],[1,0.5]];portConstraint=eastwest;whiteSpace=wrap;html=1;fontColor=#46495D;" parent="oACd-mInpP_rTTgsKtDE-4" vertex="1">
          <mxGeometry y="88" width="180" height="82" as="geometry" />
        </mxCell>
        <mxCell id="oACd-mInpP_rTTgsKtDE-8" value="&lt;b style=&quot;border-color: var(--border-color);&quot;&gt;LeafNode&amp;lt;K, T&amp;gt;&lt;/b&gt;" style="swimlane;fontStyle=1;align=center;verticalAlign=top;childLayout=stackLayout;horizontal=1;startSize=26;horizontalStack=0;resizeParent=1;resizeParentMax=0;resizeLast=0;collapsible=1;marginBottom=0;whiteSpace=wrap;html=1;strokeColor=#788AA3;fontColor=#46495D;fillColor=#B2C9AB;" parent="WIyWlLk6GJQsqaUBKTNV-1" vertex="1">
          <mxGeometry x="530" y="702" width="280" height="190" as="geometry" />
        </mxCell>
        <mxCell id="oACd-mInpP_rTTgsKtDE-9" value="&lt;p style=&quot;border-color: var(--border-color); margin: 0px 0px 0px 4px;&quot;&gt;+ data: vector&amp;lt;T&amp;gt;&lt;/p&gt;&lt;p style=&quot;border-color: var(--border-color); margin: 0px 0px 0px 4px;&quot;&gt;+ prev: LeafNode&amp;lt;K, T&amp;gt;*&lt;/p&gt;&lt;p style=&quot;border-color: var(--border-color); margin: 0px 0px 0px 4px;&quot;&gt;+ next: LeafNode&amp;lt;K, T&amp;gt;*&lt;/p&gt;" style="text;strokeColor=none;fillColor=none;align=left;verticalAlign=top;spacingLeft=4;spacingRight=4;overflow=hidden;rotatable=0;points=[[0,0.5],[1,0.5]];portConstraint=eastwest;whiteSpace=wrap;html=1;fontColor=#46495D;" parent="oACd-mInpP_rTTgsKtDE-8" vertex="1">
          <mxGeometry y="26" width="280" height="54" as="geometry" />
        </mxCell>
        <mxCell id="oACd-mInpP_rTTgsKtDE-10" value="" style="line;strokeWidth=1;fillColor=none;align=left;verticalAlign=middle;spacingTop=-1;spacingLeft=3;spacingRight=3;rotatable=0;labelPosition=right;points=[];portConstraint=eastwest;strokeColor=inherit;fontColor=#46495D;" parent="oACd-mInpP_rTTgsKtDE-8" vertex="1">
          <mxGeometry y="80" width="280" height="8" as="geometry" />
        </mxCell>
        <mxCell id="oACd-mInpP_rTTgsKtDE-11" value="&lt;p style=&quot;border-color: var(--border-color); margin: 0px 0px 0px 4px;&quot;&gt;+ LeafNode()&lt;/p&gt;&lt;p style=&quot;border-color: var(--border-color); margin: 0px 0px 0px 4px;&quot;&gt;+ ~LeafNode()&lt;/p&gt;&lt;p style=&quot;border-color: var(--border-color); margin: 0px 0px 0px 4px;&quot;&gt;&lt;br&gt;&lt;/p&gt;&lt;p style=&quot;border-color: var(--border-color); margin: 0px 0px 0px 4px;&quot;&gt;+ insert_leaf(K,T): bool&lt;/p&gt;&lt;p style=&quot;border-color: var(--border-color); margin: 0px 0px 0px 4px;&quot;&gt;+ split_leaf(): tuple&amp;lt;Node&amp;lt;K,T&amp;gt;*,&amp;nbsp; Node&amp;lt;K,T&amp;gt;*, K&amp;gt;&lt;/p&gt;&lt;p style=&quot;border-color: var(--border-color); margin: 0px 0px 0px 4px;&quot;&gt;+ delete_leaf(K): bool&lt;/p&gt;" style="text;strokeColor=none;fillColor=none;align=left;verticalAlign=top;spacingLeft=4;spacingRight=4;overflow=hidden;rotatable=0;points=[[0,0.5],[1,0.5]];portConstraint=eastwest;whiteSpace=wrap;html=1;fontColor=#46495D;" parent="oACd-mInpP_rTTgsKtDE-8" vertex="1">
          <mxGeometry y="88" width="280" height="102" as="geometry" />
        </mxCell>
        <mxCell id="oACd-mInpP_rTTgsKtDE-12" value="&lt;b style=&quot;border-color: var(--border-color);&quot;&gt;&lt;b style=&quot;border-color: var(--border-color);&quot;&gt;InternalNode&lt;/b&gt;&amp;lt;K, T&amp;gt;&lt;/b&gt;" style="swimlane;fontStyle=1;align=center;verticalAlign=top;childLayout=stackLayout;horizontal=1;startSize=26;horizontalStack=0;resizeParent=1;resizeParentMax=0;resizeLast=0;collapsible=1;marginBottom=0;whiteSpace=wrap;html=1;strokeColor=#788AA3;fontColor=#46495D;fillColor=#B2C9AB;" parent="WIyWlLk6GJQsqaUBKTNV-1" vertex="1">
          <mxGeometry x="869" y="702" width="280" height="190" as="geometry" />
        </mxCell>
        <mxCell id="oACd-mInpP_rTTgsKtDE-13" value="&lt;p style=&quot;border-color: var(--border-color); margin: 0px 0px 0px 4px;&quot;&gt;+ data: vector&amp;lt;T&amp;gt;&lt;/p&gt;&lt;p style=&quot;border-color: var(--border-color); margin: 0px 0px 0px 4px;&quot;&gt;+ prev: LeafNode&amp;lt;K, T&amp;gt;*&lt;/p&gt;&lt;p style=&quot;border-color: var(--border-color); margin: 0px 0px 0px 4px;&quot;&gt;+ next: LeafNode&amp;lt;K, T&amp;gt;*&lt;/p&gt;" style="text;strokeColor=none;fillColor=none;align=left;verticalAlign=top;spacingLeft=4;spacingRight=4;overflow=hidden;rotatable=0;points=[[0,0.5],[1,0.5]];portConstraint=eastwest;whiteSpace=wrap;html=1;fontColor=#46495D;" parent="oACd-mInpP_rTTgsKtDE-12" vertex="1">
          <mxGeometry y="26" width="280" height="54" as="geometry" />
        </mxCell>
        <mxCell id="oACd-mInpP_rTTgsKtDE-14" value="" style="line;strokeWidth=1;fillColor=none;align=left;verticalAlign=middle;spacingTop=-1;spacingLeft=3;spacingRight=3;rotatable=0;labelPosition=right;points=[];portConstraint=eastwest;strokeColor=inherit;fontColor=#46495D;" parent="oACd-mInpP_rTTgsKtDE-12" vertex="1">
          <mxGeometry y="80" width="280" height="8" as="geometry" />
        </mxCell>
        <mxCell id="oACd-mInpP_rTTgsKtDE-15" value="&lt;p style=&quot;border-color: var(--border-color); margin: 0px 0px 0px 4px;&quot;&gt;+ InternalNode()&lt;/p&gt;&lt;p style=&quot;border-color: var(--border-color); margin: 0px 0px 0px 4px;&quot;&gt;+ ~InternalNode()&lt;/p&gt;&lt;p style=&quot;border-color: var(--border-color); margin: 0px 0px 0px 4px;&quot;&gt;&lt;br&gt;&lt;/p&gt;&lt;p style=&quot;border-color: var(--border-color); margin: 0px 0px 0px 4px;&quot;&gt;+ child_index(K): int&lt;/p&gt;&lt;p style=&quot;border-color: var(--border-color); margin: 0px 0px 0px 4px;&quot;&gt;+ insert_inner(std::vector&amp;lt;Node&amp;lt;K,T&amp;gt;*&amp;gt;): bool&lt;/p&gt;&lt;p style=&quot;border-color: var(--border-color); margin: 0px 0px 0px 4px;&quot;&gt;+ delete_inner(K): bool&lt;/p&gt;" style="text;strokeColor=none;fillColor=none;align=left;verticalAlign=top;spacingLeft=4;spacingRight=4;overflow=hidden;rotatable=0;points=[[0,0.5],[1,0.5]];portConstraint=eastwest;whiteSpace=wrap;html=1;fontColor=#46495D;" parent="oACd-mInpP_rTTgsKtDE-12" vertex="1">
          <mxGeometry y="88" width="280" height="102" as="geometry" />
        </mxCell>
        <mxCell id="oACd-mInpP_rTTgsKtDE-16" value="BPlusTree&amp;lt;K, T&amp;gt;" style="swimlane;fontStyle=1;align=center;verticalAlign=top;childLayout=stackLayout;horizontal=1;startSize=26;horizontalStack=0;resizeParent=1;resizeParentMax=0;resizeLast=0;collapsible=1;marginBottom=0;whiteSpace=wrap;html=1;strokeColor=#788AA3;fontColor=#46495D;fillColor=#B2C9AB;" parent="WIyWlLk6GJQsqaUBKTNV-1" vertex="1">
          <mxGeometry x="-20" y="290" width="380" height="470" as="geometry" />
        </mxCell>
        <mxCell id="oACd-mInpP_rTTgsKtDE-17" value="&lt;p style=&quot;border-color: var(--border-color); margin: 0px 0px 0px 4px;&quot;&gt;&lt;span style=&quot;background-color: initial;&quot;&gt;- root_: Node&amp;lt;K,T&amp;gt;*&lt;/span&gt;&lt;br&gt;&lt;/p&gt;&lt;p style=&quot;border-color: var(--border-color); margin: 0px 0px 0px 4px;&quot;&gt;- depth_: int&lt;/p&gt;&lt;p style=&quot;border-color: var(--border-color); margin: 0px 0px 0px 4px;&quot;&gt;- maxcap_: int&lt;/p&gt;&lt;p style=&quot;border-color: var(--border-color); margin: 0px 0px 0px 4px;&quot;&gt;- mincap_: int&lt;/p&gt;&lt;p style=&quot;border-color: var(--border-color); margin: 0px 0px 0px 4px;&quot;&gt;&lt;br&gt;&lt;/p&gt;" style="text;strokeColor=none;fillColor=none;align=left;verticalAlign=top;spacingLeft=4;spacingRight=4;overflow=hidden;rotatable=0;points=[[0,0.5],[1,0.5]];portConstraint=eastwest;whiteSpace=wrap;html=1;fontColor=#46495D;" parent="oACd-mInpP_rTTgsKtDE-16" vertex="1">
          <mxGeometry y="26" width="380" height="74" as="geometry" />
        </mxCell>
        <mxCell id="oACd-mInpP_rTTgsKtDE-18" value="" style="line;strokeWidth=1;fillColor=none;align=left;verticalAlign=middle;spacingTop=-1;spacingLeft=3;spacingRight=3;rotatable=0;labelPosition=right;points=[];portConstraint=eastwest;strokeColor=inherit;fontColor=#46495D;" parent="oACd-mInpP_rTTgsKtDE-16" vertex="1">
          <mxGeometry y="100" width="380" height="8" as="geometry" />
        </mxCell>
        <mxCell id="oACd-mInpP_rTTgsKtDE-19" value="+ BPlusTree()&lt;br&gt;+ ~BPlusTree()&lt;br&gt;&lt;br&gt;+ search(K): T&lt;br&gt;+ search_range(K, K): std::vector&amp;lt;T&amp;gt;&lt;br&gt;+ tree_insert(K, T): void&lt;br&gt;+ tree_delete(K): void&lt;br&gt;&lt;br&gt;+ get_root(): Node&amp;lt;K, T&amp;gt;*&lt;br style=&quot;border-color: var(--border-color);&quot;&gt;+ get_depth(): int&lt;br style=&quot;border-color: var(--border-color);&quot;&gt;+ find_leaf(int): Node&amp;lt;K, T&amp;gt;*&lt;br style=&quot;border-color: var(--border-color);&quot;&gt;+ insert_in_parent(std::tuple&amp;lt;Node&amp;lt;K,T&amp;gt;*,Node&amp;lt;K,T&amp;gt;*, K&amp;gt;): void&lt;br style=&quot;border-color: var(--border-color);&quot;&gt;+ show_bplustree(): void&lt;br&gt;+ bfs(): std::vector&amp;lt;K&amp;gt;&lt;br style=&quot;border-color: var(--border-color);&quot;&gt;&lt;br style=&quot;border-color: var(--border-color);&quot;&gt;Node+ borrow_right_leaf(Node&amp;lt;K, T&amp;gt;*, Node&amp;lt;K, T&amp;gt;*): void&lt;br style=&quot;border-color: var(--border-color);&quot;&gt;+ borrow_left_leaf(Node&amp;lt;K, T&amp;gt;*, Node&amp;lt;K, T&amp;gt;*): void&lt;br style=&quot;border-color: var(--border-color);&quot;&gt;+ merge_right_leaf(Node&amp;lt;K, T&amp;gt;*, Node&amp;lt;K, T&amp;gt;*): void&lt;br style=&quot;border-color: var(--border-color);&quot;&gt;+ merge_left_leaf(Node&amp;lt;K, T&amp;gt;*, Node&amp;lt;K, T&amp;gt;*): void&lt;br style=&quot;border-color: var(--border-color);&quot;&gt;&lt;br style=&quot;border-color: var(--border-color);&quot;&gt;+ borrow_right_inner(int, Node&amp;lt;K, T&amp;gt;*, Node&amp;lt;K, T&amp;gt;*): void&lt;br style=&quot;border-color: var(--border-color);&quot;&gt;+ borrow_left_inner(int, Node&amp;lt;K, T&amp;gt;*, Node&amp;lt;K, T&amp;gt;*): void&lt;br style=&quot;border-color: var(--border-color);&quot;&gt;+ merge_right_inner(int, Node&amp;lt;K, T&amp;gt;*, Node&amp;lt;K, T&amp;gt;*): void&lt;br style=&quot;border-color: var(--border-color);&quot;&gt;+ merge_left_inner(int, Node&amp;lt;K, T&amp;gt;*, Node&amp;lt;K, T&amp;gt;*): void" style="text;strokeColor=none;fillColor=none;align=left;verticalAlign=top;spacingLeft=4;spacingRight=4;overflow=hidden;rotatable=0;points=[[0,0.5],[1,0.5]];portConstraint=eastwest;whiteSpace=wrap;html=1;fontColor=#46495D;" parent="oACd-mInpP_rTTgsKtDE-16" vertex="1">
          <mxGeometry y="108" width="380" height="362" as="geometry" />
        </mxCell>
        <mxCell id="oACd-mInpP_rTTgsKtDE-26" value="" style="endArrow=open;html=1;endSize=12;startArrow=diamondThin;startSize=14;startFill=0;edgeStyle=orthogonalEdgeStyle;align=left;verticalAlign=bottom;rounded=0;strokeColor=#788AA3;fontColor=#46495D;fillColor=#B2C9AB;exitX=1.011;exitY=-0.007;exitDx=0;exitDy=0;exitPerimeter=0;entryX=-0.002;entryY=0.948;entryDx=0;entryDy=0;entryPerimeter=0;" parent="WIyWlLk6GJQsqaUBKTNV-1" target="oACd-mInpP_rTTgsKtDE-5" edge="1">
          <mxGeometry x="-1" y="3" relative="1" as="geometry">
            <mxPoint x="361.98" y="506.376" as="sourcePoint" />
            <mxPoint x="470" y="490" as="targetPoint" />
          </mxGeometry>
        </mxCell>
      </root>
    </mxGraphModel>
  </diagram>
</mxfile>
